<svg xmlns="http://www.w3.org/2000/svg" width="800" height="600" viewBox="0 0 800 600">
  <defs>
    <linearGradient id="bg" x1="0" y1="0" x2="1" y2="1">
      <stop offset="0" stop-color="#fff7fa"/>
      <stop offset="1" stop-color="#f1f8f7"/>
    </linearGradient>
    <linearGradient id="curve" x1="0" y1="0" x2="1" y2="0">
      <stop offset="0" stop-color="#60a5fa"/>
      <stop offset="1" stop-color="#a78bfa"/>
    </linearGradient>
  </defs>
  <rect width="800" height="600" fill="url(#bg)"/>
  <g opacity="0.25" stroke="#94a3b8" stroke-width="1">
    <path d="M80 520H760"/>
    <path d="M120 80V520"/>
    <path d="M120 440H760"/>
    <path d="M120 360H760"/>
    <path d="M120 280H760"/>
    <path d="M120 200H760"/>
    <path d="M200 80V520"/>
    <path d="M280 80V520"/>
    <path d="M360 80V520"/>
    <path d="M440 80V520"/>
    <path d="M520 80V520"/>
    <path d="M600 80V520"/>
    <path d="M680 80V520"/>
    <path d="M760 80V520"/>
  </g>
  <g>
    <path d="M120 520C170 510 220 495 270 465C320 435 370 380 420 320C470 260 520 200 570 155C620 110 690 95 760 90" fill="none" stroke="url(#curve)" stroke-width="10" stroke-linecap="round"/>
    <circle cx="120" cy="520" r="7" fill="#60a5fa"/>
    <circle cx="760" cy="90" r="7" fill="#a78bfa"/>
  </g>
  <g fill="#05070b">
    <text x="160" y="160" font-family="ui-monospace, SFMono-Regular, Menlo, Monaco, Consolas, 'Liberation Mono', 'Courier New', monospace" font-size="34" opacity="0.9">函数 · 指数挂机</text>
    <text x="160" y="210" font-family="ui-sans-serif, system-ui, -apple-system, Segoe UI, Roboto, Helvetica, Arial, 'Apple Color Emoji', 'Segoe UI Emoji'" font-size="18" opacity="0.75">通过函数模拟指数增长的挂机游戏</text>
  </g>
</svg>

